<svg width="665" height="651" viewBox="0 0 665 651" fill="none" xmlns="http://www.w3.org/2000/svg">
<path d="M660 175.142V641C660 643.761 657.761 646 655 646H189.142C184.688 646 182.457 640.614 185.607 637.464L215.607 607.464C216.544 606.527 217.816 606 219.142 606H605C613.284 606 620 599.284 620 591V205.142C620 203.816 620.527 202.544 621.464 201.607L651.464 171.607C654.614 168.457 660 170.688 660 175.142ZM521.158 38.3186L516.771 101.421C516.688 102.624 516.172 103.757 515.319 104.61L120.61 499.319C119.757 500.172 118.624 500.688 117.421 500.771L54.3186 505.158C49.7058 505.479 47.1667 499.904 50.4363 496.635L512.635 34.4363C515.904 31.1667 521.479 33.7058 521.158 38.3186ZM144.842 599.681L149.229 536.579C149.312 535.376 149.828 534.243 150.681 533.39L545.39 138.681C546.243 137.828 547.376 137.312 548.579 137.229L611.681 132.842C616.294 132.521 618.833 138.096 615.564 141.365L153.365 603.564C150.096 606.833 144.521 604.294 144.842 599.681ZM5 461.79V10.0739C5 5.62418 10.3757 3.39116 13.5284 6.53126L239.386 231.486C241.343 233.434 241.349 236.6 239.4 238.557L202.675 275.43C200.734 277.378 197.585 277.393 195.625 275.465L70.3211 152.176C60.837 142.844 44.8008 149.563 44.8008 162.868V431.87C44.8008 433.192 44.2768 434.461 43.3434 435.398L13.5426 465.318C10.3957 468.478 5 466.249 5 461.79Z" fill="#FFFAFA" stroke="#FFFAFA" stroke-width="10"/>
</svg>
